Coordinates
version=1
nRows=6
nColumns=63
inDegrees=yes

Units are S.I. units (second, meters, Newtons, ...)
If the header above contains a line with 'inDegrees', this indicates whether rotational values are in degrees (yes) or radians (no).

endheader
time	pelvis_tilt	pelvis_list	pelvis_rotation	pelvis_tx	pelvis_ty	pelvis_tz	hip_flexion_r	hip_adduction_r	hip_rotation_r	knee_angle_r	knee_angle_r_beta	ankle_angle_r	subtalar_angle_r	mtp_angle_r	hip_flexion_l	hip_adduction_l	hip_rotation_l	knee_angle_l	knee_angle_l_beta	ankle_angle_l	subtalar_angle_l	mtp_angle_l	L5_S1_Flex_Ext	L5_S1_Lat_Bending	L5_S1_axial_rotation	L4_L5_Flex_Ext	L4_L5_Lat_Bending	L4_L5_axial_rotation	L3_L4_Flex_Ext	L3_L4_Lat_Bending	L3_L4_axial_rotation	L2_L3_Flex_Ext	L2_L3_Lat_Bending	L2_L3_axial_rotation	L1_L2_Flex_Ext	L1_L2_Lat_Bending	L1_L2_axial_rotation	L1_T12_Flex_Ext	L1_T12_Lat_Bending	L1_T12_axial_rotation	Abs_r3	Abs_r2	Abs_r1	Abs_t1	Abs_t2	neck_flexion	neck_bending	neck_rotation	arm_flex_r	arm_add_r	arm_rot_r	elbow_flex_r	pro_sup_r	wrist_flex_r	wrist_dev_r	arm_flex_l	arm_add_l	arm_rot_l	elbow_flex_l	pro_sup_l	wrist_flex_l	wrist_dev_l
      2.65517241	      0.36161840	    -12.88185278	     94.00471120	      0.17564775	      1.00149951	      0.10655530	      8.97631971	      0.99365050	      5.20910780	      0.95042887	      0.01658811	     25.62720740	    -12.27848140	      0.00000000	     10.70875557	      2.04163021	     15.19556976	      2.40234139	      0.04192877	     23.96999479	    -17.35159701	      0.00000000	      0.11726414	     -0.03032067	      0.70721374	      0.21777123	     -0.04032648	      0.75141460	      0.19265325	     -0.07372166	      0.75141460	      0.13402118	     -0.07372166	      0.61881202	      0.10889148	     -0.06182990	      0.57461116	      0.06700473	     -0.04696671	      0.53041030	      0.83760600	     -0.34299343	      3.93331065	      0.00000000	      0.00000000	     23.37364392	     -5.64069976	      0.73323714	     15.87852184	     -8.05511405	     66.20148302	     43.29254283	     69.86346408	      1.75185086	      6.97519256	     20.20051281	     -8.81421727	     69.85535192	     47.35194656	     87.90010865	      2.61785770	      1.80819471
      2.67241379	      0.36811822	    -12.79936830	     93.90199200	      0.17540058	      1.00180897	      0.10697449	      8.96760704	      0.98985895	      4.65050333	      1.00303976	      0.01750635	     25.95030031	    -11.40582050	      0.00000000	     10.67376645	      2.04685547	     15.18474522	      2.47865640	      0.04326072	     23.95137077	    -17.34020612	      0.00000000	      0.11162011	     -0.02206528	      0.67420400	      0.20728970	     -0.02934682	      0.71634175	      0.18338067	     -0.05364952	      0.71634175	      0.12757062	     -0.05364952	      0.58992850	      0.10365043	     -0.04499551	      0.54779075	      0.06377973	     -0.03417912	      0.50565300	      0.79729126	     -0.24960684	      3.74972038	      0.00000000	      0.00000000	     23.37926152	     -4.86492684	      0.65606684	     16.08666841	     -8.35599007	     67.00799467	     43.47032134	     65.76089370	      1.14870880	      6.13474626	     20.24254031	     -8.80997374	     70.01898195	     47.46478778	     88.01221918	      1.03213168	      1.01522646
      2.68965517	      0.33158094	    -12.69509314	     93.66229974	      0.17538461	      1.00217870	      0.10743236	      8.94915081	      0.97347825	      4.74171008	      1.01132116	      0.01765088	     26.09933982	    -11.37620441	      0.00000000	     10.60195227	      2.07415951	     14.99677971	      2.55821689	      0.04464931	     23.96075634	    -17.34637505	      0.00000000	      0.09743469	     -0.01910383	      0.68353828	      0.18094596	     -0.02540810	      0.72625942	      0.16007545	     -0.04644906	      0.72625942	      0.11135810	     -0.04644906	      0.59809599	      0.09047785	     -0.03895654	      0.55537485	      0.05567418	     -0.02959184	      0.51265371	      0.69596622	     -0.21610638	      3.80163484	      0.00000000	      0.00000000	     23.46026032	     -4.18872504	      0.46790853	     16.03941957	     -8.62539297	     66.43397993	     43.82242635	     65.15383083	      1.06386168	      5.37396913	     20.19083495	     -8.67104467	     69.45962147	     47.54324040	     87.97274660	      0.56382813	      0.69455722
      2.70689655	      0.21957267	    -12.59701449	     93.33532158	      0.17564582	      1.00268241	      0.10811347	      8.97988102	      0.88886222	      4.92153435	      1.06735887	      0.01862893	     26.24585335	    -11.19315149	      0.00000000	     10.55675167	      2.14937317	     14.80143967	      2.65899254	      0.04640817	     23.78074519	    -17.34778417	      0.00000000	      0.08291980	     -0.02356742	      0.70593946	      0.15399036	     -0.03134467	      0.75006067	      0.13622894	     -0.05730183	      0.75006067	      0.09476904	     -0.05730183	      0.61769703	      0.07699933	     -0.04805868	      0.57357581	      0.04738037	     -0.03650593	      0.52945459	      0.59228784	     -0.26659937	      3.92622349	      0.00000000	      0.00000000	     23.44697622	     -3.83751094	      0.40242097	     16.05897148	     -8.79057919	     65.75064157	     44.11977732	     64.23490084	      1.03225300	      4.59999057	     20.26018935	     -8.50733847	     68.91500145	     47.51922722	     87.83547706	      0.25242849	      0.39327578
      2.72413793	      0.04570448	    -12.49723250	     92.65412054	      0.17668276	      1.00313197	      0.10855786	      9.03649829	      0.81722185	      4.38365839	      1.12393346	      0.01961634	     26.75102131	     -9.72489798	      0.00000000	     10.38765414	      2.19717038	     14.21908822	      2.58156384	      0.04505679	     23.80780853	    -17.31041595	      0.00000000	      0.08228023	     -0.03602533	      0.79017823	      0.15280262	     -0.04791369	      0.83956437	      0.13517819	     -0.08759199	      0.83956437	      0.09403808	     -0.08759199	      0.69140596	      0.07640542	     -0.07346286	      0.64201982	      0.04701492	     -0.05580324	      0.59263368	      0.58771946	     -0.40752575	      4.39473429	      0.00000000	      0.00000000	     23.35112457	     -3.75032374	      0.38094057	     16.76218984	     -8.90386244	     67.82741877	     44.21094928	     53.78056107	      0.34724972	      3.51021386	     20.34969617	     -8.34309532	     68.31174073	     47.31494683	     87.67902759	      0.70167652	      0.16798526
      2.74137931	     -0.13396061	    -12.30603803	     92.27645729	      0.17702886	      1.00366551	      0.10907386	      8.93509865	      0.67509101	      4.58287122	      1.12496949	      0.01963442	     26.95033870	     -9.51809633	      0.00000000	     10.21107196	      2.33182312	     14.02648855	      2.64629651	      0.04618659	     23.71025096	    -17.38600515	      0.00000000	      0.06556330	     -0.04266117	      0.82909742	      0.12175761	     -0.05673935	      0.88091601	      0.10771395	     -0.10372636	      0.88091601	      0.07493230	     -0.10372636	      0.72546024	      0.06088208	     -0.08699465	      0.67364165	      0.03746287	     -0.06608215	      0.62182306	      0.46831210	     -0.48259166	      4.61119112	      0.00000000	      0.00000000	     23.31025094	     -4.02492575	      0.61258205	     16.95032429	     -8.95342426	     67.19157436	     44.39161524	     53.25141977	      0.47373013	      3.20847665	     20.53670169	     -8.11576256	     67.88342758	     47.09064052	     87.36516449	      1.01407278	      0.34130147
